<svg xmlns="http://www.w3.org/2000/svg" width="1600" height="900" viewBox="0 0 1600 900">
  <defs>
    <linearGradient id="bg" x1="0" y1="0" x2="1" y2="1">
      <stop offset="0" stop-color="#5b2227"/>
      <stop offset="0.55" stop-color="#1a1112"/>
      <stop offset="1" stop-color="#0c0a0b"/>
    </linearGradient>
    <radialGradient id="glow" cx="70%" cy="25%" r="55%">
      <stop offset="0" stop-color="#e0c16c" stop-opacity="0.35"/>
      <stop offset="1" stop-color="#e0c16c" stop-opacity="0"/>
    </radialGradient>
    <linearGradient id="shine" x1="0" y1="1" x2="1" y2="0">
      <stop offset="0" stop-color="#ffffff" stop-opacity="0"/>
      <stop offset="0.55" stop-color="#ffffff" stop-opacity="0.10"/>
      <stop offset="1" stop-color="#ffffff" stop-opacity="0"/>
    </linearGradient>
    <filter id="soft" x="-10%" y="-10%" width="120%" height="120%">
      <feGaussianBlur stdDeviation="18"/>
    </filter>
  </defs>

  <rect width="1600" height="900" fill="url(#bg)"/>
  <rect width="1600" height="900" fill="url(#glow)"/>

  <g opacity="0.65" filter="url(#soft)">
    <circle cx="1120" cy="240" r="220" fill="#c8a24a" opacity="0.18"/>
    <circle cx="1280" cy="330" r="160" fill="#c8a24a" opacity="0.12"/>
    <circle cx="980" cy="420" r="260" fill="#ffffff" opacity="0.05"/>
  </g>

  <path d="M-30 720 C 280 590, 430 980, 760 820 C 1020 700, 1180 720, 1630 560 L 1630 940 L -30 940 Z" fill="#ffffff" opacity="0.04"/>
  <path d="M-30 760 C 240 660, 470 980, 840 840 C 1140 730, 1260 720, 1630 620" stroke="url(#shine)" stroke-width="32" opacity="0.55"/>
</svg>

